{
    "asset" : {
        "generator" : "Khronos glTF Blender I/O v1.8.19",
        "version" : "2.0"
    },
    "scene" : 0,
    "scenes" : [
        {
            "name" : "Scene",
            "nodes" : [
                0,
                1
            ]
        }
    ],
    "nodes" : [
        {
            "mesh" : 0,
            "name" : "afds.001",
            "rotation" : [
                -0.0845806822180748,
                0.7621487975120544,
                -0.6337418556213379,
                0.10171809047460556
            ],
            "scale" : [
                152.16123962402344,
                152.16123962402344,
                152.1612548828125
            ],
            "translation" : [
                -90.07244873046875,
                -50.90936279296875,
                -68.80276489257812
            ]
        },
        {
            "mesh" : 1,
            "name" : "all",
            "rotation" : [
                -0.6393611431121826,
                0,
                0,
                0.7689067125320435
            ],
            "scale" : [
                14.464923858642578,
                14.464923858642578,
                14.464923858642578
            ],
            "translation" : [
                2.245025396347046,
                -24.495817184448242,
                85.20516967773438
            ]
        }
    ],
    "materials" : [
        {
            "doubleSided" : true,
            "name" : "Material.004",
            "pbrMetallicRoughness" : {
                "baseColorFactor" : [
                    0.00913403369486332,
                    0,
                    0.04666507616639137,
                    1
                ],
                "metallicFactor" : 1,
                "roughnessFactor" : 0.29795917868614197
            }
        },
        {
            "doubleSided" : true,
            "name" : "08___Default",
            "pbrMetallicRoughness" : {
                "baseColorFactor" : [
                    0,
                    0,
                    0,
                    1
                ],
                "metallicFactor" : 0,
                "roughnessFactor" : 0.5
            }
        },
        {
            "doubleSided" : true,
            "name" : "glass",
            "pbrMetallicRoughness" : {
                "baseColorFactor" : [
                    0.00913403369486332,
                    0,
                    0.04666507616639137,
                    1
                ],
                "roughnessFactor" : 0
            }
        },
        {
            "doubleSided" : true,
            "name" : "02___Default",
            "pbrMetallicRoughness" : {
                "baseColorFactor" : [
                    0.8000000715255737,
                    0.014992596581578255,
                    0.036061838269233704,
                    1
                ],
                "metallicFactor" : 1,
                "roughnessFactor" : 0
            }
        },
        {
            "doubleSided" : true,
            "emissiveFactor" : [
                1,
                1,
                1
            ],
            "name" : "Material",
            "pbrMetallicRoughness" : {}
        }
    ],
    "meshes" : [
        {
            "name" : "afds.001",
            "primitives" : [
                {
                    "attributes" : {
                        "POSITION" : 0,
                        "NORMAL" : 1
                    },
                    "indices" : 2,
                    "material" : 0
                }
            ]
        },
        {
            "name" : "36_-_Lotus.001",
            "primitives" : [
                {
                    "attributes" : {
                        "POSITION" : 3,
                        "NORMAL" : 4
                    },
                    "indices" : 5,
                    "material" : 1
                },
                {
                    "attributes" : {
                        "POSITION" : 6,
                        "NORMAL" : 7
                    },
                    "indices" : 8,
                    "material" : 2
                },
                {
                    "attributes" : {
                        "POSITION" : 9,
                        "NORMAL" : 10
                    },
                    "indices" : 11,
                    "material" : 3
                },
                {
                    "attributes" : {
                        "POSITION" : 12,
                        "NORMAL" : 13
                    },
                    "indices" : 14,
                    "material" : 4
                }
            ]
        }
    ],
    "accessors" : [
        {
            "bufferView" : 0,
            "componentType" : 5126,
            "count" : 446,
            "max" : [
                0.5422613024711609,
                0.6516359448432922,
                0.5610584020614624
            ],
            "min" : [
                -1.6662681102752686,
                -0.538200855255127,
                -0.11660868674516678
            ],
            "type" : "VEC3"
        },
        {
            "bufferView" : 1,
            "componentType" : 5126,
            "count" : 446,
            "type" : "VEC3"
        },
        {
            "bufferView" : 2,
            "componentType" : 5123,
            "count" : 1470,
            "type" : "SCALAR"
        },
        {
            "bufferView" : 3,
            "componentType" : 5126,
            "count" : 32551,
            "max" : [
                4.457964897155762,
                13.853582382202148,
                3.8969500064849854
            ],
            "min" : [
                -4.778815746307373,
                0.6449069976806641,
                -4.163900852203369
            ],
            "type" : "VEC3"
        },
        {
            "bufferView" : 4,
            "componentType" : 5126,
            "count" : 32551,
            "type" : "VEC3"
        },
        {
            "bufferView" : 5,
            "componentType" : 5123,
            "count" : 32556,
            "type" : "SCALAR"
        },
        {
            "bufferView" : 6,
            "componentType" : 5126,
            "count" : 258,
            "max" : [
                1.8039640188217163,
                12.163302421569824,
                0.05428275093436241
            ],
            "min" : [
                -1.9465844631195068,
                6.826310634613037,
                -2.669532537460327
            ],
            "type" : "VEC3"
        },
        {
            "bufferView" : 7,
            "componentType" : 5126,
            "count" : 258,
            "type" : "VEC3"
        },
        {
            "bufferView" : 8,
            "componentType" : 5123,
            "count" : 258,
            "type" : "SCALAR"
        },
        {
            "bufferView" : 9,
            "componentType" : 5126,
            "count" : 84,
            "max" : [
                1.4862284660339355,
                11.529275894165039,
                0.12688034772872925
            ],
            "min" : [
                -2.7779481410980225,
                8.097122192382812,
                -3.001359701156616
            ],
            "type" : "VEC3"
        },
        {
            "bufferView" : 10,
            "componentType" : 5126,
            "count" : 84,
            "type" : "VEC3"
        },
        {
            "bufferView" : 11,
            "componentType" : 5123,
            "count" : 84,
            "type" : "SCALAR"
        },
        {
            "bufferView" : 12,
            "componentType" : 5126,
            "count" : 15,
            "max" : [
                0.21712219715118408,
                9.506012916564941,
                -0.2758655846118927
            ],
            "min" : [
                -1.8879090547561646,
                7.891769886016846,
                -0.8177958130836487
            ],
            "type" : "VEC3"
        },
        {
            "bufferView" : 13,
            "componentType" : 5126,
            "count" : 15,
            "type" : "VEC3"
        },
        {
            "bufferView" : 14,
            "componentType" : 5123,
            "count" : 15,
            "type" : "SCALAR"
        }
    ],
    "bufferViews" : [
        {
            "buffer" : 0,
            "byteLength" : 5352,
            "byteOffset" : 0
        },
        {
            "buffer" : 0,
            "byteLength" : 5352,
            "byteOffset" : 5352
        },
        {
            "buffer" : 0,
            "byteLength" : 2940,
            "byteOffset" : 10704
        },
        {
            "buffer" : 0,
            "byteLength" : 390612,
            "byteOffset" : 13644
        },
        {
            "buffer" : 0,
            "byteLength" : 390612,
            "byteOffset" : 404256
        },
        {
            "buffer" : 0,
            "byteLength" : 65112,
            "byteOffset" : 794868
        },
        {
            "buffer" : 0,
            "byteLength" : 3096,
            "byteOffset" : 859980
        },
        {
            "buffer" : 0,
            "byteLength" : 3096,
            "byteOffset" : 863076
        },
        {
            "buffer" : 0,
            "byteLength" : 516,
            "byteOffset" : 866172
        },
        {
            "buffer" : 0,
            "byteLength" : 1008,
            "byteOffset" : 866688
        },
        {
            "buffer" : 0,
            "byteLength" : 1008,
            "byteOffset" : 867696
        },
        {
            "buffer" : 0,
            "byteLength" : 168,
            "byteOffset" : 868704
        },
        {
            "buffer" : 0,
            "byteLength" : 180,
            "byteOffset" : 868872
        },
        {
            "buffer" : 0,
            "byteLength" : 180,
            "byteOffset" : 869052
        },
        {
            "buffer" : 0,
            "byteLength" : 30,
            "byteOffset" : 869232
        }
    ],
    "buffers" : [
        {
            "byteLength" : 869264,
            "uri" : "123.bin"
        }
    ]
}
