<svg width="402" height="181" viewBox="0 0 402 181" fill="none" xmlns="http://www.w3.org/2000/svg">

<defs>
    <style type="text/css"><![CDATA[
      

#text1{
    display: none;
    height:50vw;
    width:80vw;
    stroke-dasharray:560;
    animation:1s fillsvg1 cubic-bezier(1, -0.05, 0.68, 0.96);
   
}
   
@keyframes fillsvg1{
    0%{
        stroke-dashoffset:560;
    }
    100%{
    
        stroke-dashoffset:0;
    }
}

#text3{

/* display:none;    */
 height:50vw;
    width:80vw;
    stroke-dasharray:700;
    animation:1s fillsvg3 cubic-bezier(0.63, 0.13, 0.9, 1.01);
   
}
   
@keyframes fillsvg3{
    0%{
        stroke-dashoffset:700;
    }
    100%{
    
        stroke-dashoffset:0;
    }
}
#text4{
/* aftre  */
display:none;    
height:50vw;
    width:80vw;
    stroke-dasharray:300;
    animation-delay: s;
    animation:3s fillsvg4 linear;
    
    
   
}
   
@keyframes fillsvg4{
    
    0%{
        
        stroke-dashoffset:300;
    }
    100%{
    
        stroke-dashoffset:0;
    }
}
#text5{

display:none;   
 height:50vw;
    width:80vw;
    stroke-dasharray:622;
    animation:0.8s fillsvg5 cubic-bezier(0.63, 0.13, 0.9, 1.01);
    /* animation-delay: 1.5s; */
   
}
   
@keyframes fillsvg5{
    0%{
          
        stroke-dashoffset:622;
    }
    100%{
       
        stroke-dashoffset:0;
    }
}
#text6{

display:none;    
height:50vw;
    width:80vw;
    stroke-dasharray:300;
    animation:0.5s fillsvg11 cubic-bezier(1, -0.05, 0, 0.96);
   
}
   
@keyframes fillsvg6{
    0%{
        stroke-dashoffset:300;
    }
    100%{
    
        stroke-dashoffset:0;
    }
}
#text7{

display:none; 
   height:50vw;
    width:80vw;
    stroke-dasharray:300;
    animation:3s fillsvg7 linear;
   
}
   
@keyframes fillsvg7{
    0%{
        stroke-dashoffset:300;
    }
    100%{
    
        stroke-dashoffset:0;
    }
}

#text11{
    display:none;
    height:50vw;
    width:80vw;
    stroke-dasharray:300;
    animation:0.4s fillsvg11 cubic-bezier(1, -0.05, 0, 0.96);
   
}
   
@keyframes fillsvg11{
    0%{
        stroke-dashoffset:300;
    }
    100%{
    
        stroke-dashoffset:0;
    }
}
    ]]></style>
  </defs>
<path id="text1" d="M114.417 120.669C111.084 124.503 106.417 133.069 114.417 136.669C122.417 140.269 132.751 131.503 136.917 126.669C136.917 129.003 138.717 132.569 145.917 128.169C151.972 127.634 167.666 122.225 182 104.867C193.6 88.3088 200.833 75.8359 203 71.6692C193.778 85.3359 175.551 113.869 176.417 118.669C180.584 114.336 191.117 105.869 199.917 106.669C201.917 106.669 196.917 113.669 208.917 106.669C214.117 101.321 215.084 96.441 214.917 94.6692C213.751 92.8011 209.117 92.2254 199.917 104.867C204.78 102.766 210.509 100.629 217.417 99.6692C222.903 98.9073 231.081 94.7092 239.873 89.1692C237.555 93.0025 234.817 99.8692 242.417 96.6692C250.017 93.4692 263.917 86.6692 269.917 83.6692C268.751 84.8359 266.917 87.3692 268.917 88.1692C276.111 87.7231 292.2 84.6648 299 76.0001C293.8 74.8001 295.833 80.1667 297.5 83.0001L309.417 76.6692L323.5 72.5001L334 69.0001C332.5 65.6667 328.3 61.0001 323.5 69.0001C323.1 74.2001 332 71.8334 336.5 70.0001C345.333 66.1667 363.4 57.7001 365 54.5001C362.6 57.7001 364.333 58.1667 365.5 58.0001L383.5 " stroke="white" stroke-width="4" stroke-linecap="round"/>
        <path id="text3" d="M2 178.169C34.5 173.169 70.2 52.1692 79 6.16919C65.5 70.1692 18.7 168.269 33.5 168.669C48.3 169.069 55.5 145.169 59 133.669C55 141.336 48.2 157.869 53 162.669C57.8 165.469 65 156.169 65 156.169C65 156.169 247.1 99.5692 263.5 101.169" stroke="white" stroke-width="4" stroke-linecap="round"/>
        <path id="text4" d="M271.223 100.372L271.042 100.069C271.014 100.023 270.993 99.9732 270.979 99.9214C270.812 99.3112 269.976 99.2162 269.694 99.782L269.588 99.993C269.335 100.5 269.744 101.085 270.307 101.022L270.371 101.015C270.455 101.005 270.541 101.018 270.619 101.053C271.045 101.243 271.462 100.772 271.223 100.372Z" fill="white" stroke="white" stroke-width="4" stroke-linecap="round"/>
        <path id="text5" d="M128.5 65.6691C112.28 78.5041 81.5454 105.925 69.8123 126.659C66.0801 133.254 63.8658 145.859 71.409 145.135C72.6335 145.018 73.9784 144.583 75.3742 143.929C84.5672 139.619 89.7981 130.037 94.3104 120.942L107.572 94.2116C115.377 78.4788 127.308 65.1603 142.09 55.6773L146 53.1691C162.167 43.6691 201.562 27.7173 234.5 20.1691C256.06 15.2285 294.06 7.91978 298.339 26.0252C300.304 34.3379 294.675 42.3277 289.236 48.914C278.297 62.1611 260.111 80.3251 239.5 90.1691C220.803 99.0989 204.264 105.303 193.312 108.918C186.182 111.271 179.14 113.927 172.486 117.407L160.837 123.5C153.641 127.265 146 130.11 138.095 131.97L116 137.169" stroke="white" stroke-width="4" stroke-linecap="round"/>
        <path id="text6" d="M23.5 57.6692C16 52.6691 28 24.6691 87 4.16919C157.5 -11.8309 125 65.1691 84 88.1692C54.6358 104.642 33.8333 106.503 28 107.169" stroke="white" stroke-width="4" stroke-linecap="round"/>
        <path id="text7" d="M63 111.5C63.7434 110.013 63.1052 109.85 61.8074 110.37C61.6033 110.452 61.4231 110.583 61.2741 110.745L60.9793 111.065C60.3007 111.801 60.6358 112.994 61.5983 113.269C62.3534 113.484 62.5524 113.062 62.7025 112.291C62.7413 112.092 62.8314 111.837 63 111.5Z" fill="white"/>
       <path id="text11" d="M66.5 137.669C74.0573 135.15 164.464 97.3759 200.359 84.4423C209.33 81.2097 218.567 78.6939 227.642 75.7627L327 43.6692" stroke="white" stroke-width="4" stroke-linecap="round"/>
       


<script>//<![CDATA[
        	  const myTimeout = setTimeout(myGreeting, 1100);

function myGreeting() {
  document.getElementById("text5").style.display = "block"
}
            const myTimeout1 = setTimeout(myGreeting1, 3000);

function myGreeting1() {
  document.getElementById("text7").style.display = "block"
}
            const myTimeout2 = setTimeout(myGreeting2, 2000);

function myGreeting2() {
  document.getElementById("text1").style.display = "block"
}
            const myTimeout3 = setTimeout(myGreeting3, 1000);

function myGreeting3() {
  document.getElementById("text4").style.display = "block"
}
            const myTimeout4 = setTimeout(myGreeting4, 3500);

function myGreeting4() {
  document.getElementById("text6").style.display = "block"
}
            const myTimeout5 = setTimeout(myGreeting5, 4300);

function myGreeting5() {
  document.getElementById("text11").style.display = "block"
}
    //]]>
    </script>
</svg>
