<svg width="16" height="16" viewBox="0 0 16 16" fill="none" xmlns="http://www.w3.org/2000/svg">
<rect width="16" height="16" rx="2" fill="#EEEEEE"/>
<path fill-rule="evenodd" clip-rule="evenodd" d="M3 8V15H4.52198H6.04397V11.8433V8.68658H7.39684H8.74972V9.49154V10.2965L9.3416 10.2344C11.1282 10.047 12.5884 8.92356 13.1116 7.33371C13.4073 6.43506 13.376 4.78478 13.0469 3.93427C12.5454 2.63811 11.6334 1.7637 10.3377 1.33709C9.66099 1.11432 9.30349 1.08861 6.29763 1.04634L3 1V8ZM8.02762 3.71522C9.68377 4.46731 8.98647 7.06325 7.18997 6.83405C5.53314 6.62266 5.1389 4.5345 6.60913 3.75705C7.19357 3.44791 7.42424 3.44115 8.02762 3.71522Z" fill="black"/>
<line x1="8.85" y1="9.1" x2="8.85" y2="14.9" stroke="black" stroke-width="0.2" stroke-linecap="round"/>
</svg>
