{
  "accessors": [
    {
      "bufferView": 2,
      "componentType": 5126,
      "count": 3006,
      "max": [
        1.5996500253677368,
        2.0309300422668457,
        2.469749927520752
      ],
      "min": [
        1.2045600414276123,
        -1.0549299716949463,
        -0.9855499863624573
      ],
      "type": "VEC3"
    },
    {
      "bufferView": 2,
      "byteOffset": 36072,
      "componentType": 5126,
      "count": 3006,
      "max": [
        0.9999596476554871,
        0.9858559966087341,
        0.9993022680282593
      ],
      "min": [
        -0.9998807311058044,
        -0.9989792704582214,
        -0.9998802542686462
      ],
      "type": "VEC3"
    },
    {
      "bufferView": 1,
      "componentType": 5126,
      "count": 3006,
      "max": [
        0.9946900010108948,
        0.994700014591217
      ],
      "min": [
        0.005309999920427799,
        0.0052999998442828655
      ],
      "type": "VEC2"
    },
    {
      "bufferView": 0,
      "componentType": 5125,
      "count": 3006,
      "type": "SCALAR"
    }
  ],
  "asset": {
    "extras": {
      "author": "YunXi Zheng (SamMi) (https://sketchfab.com/yunxizheng)",
      "license": "CC-BY-NC-SA-4.0 (http://creativecommons.org/licenses/by-nc-sa/4.0/)",
      "source": "https://sketchfab.com/3d-models/low-poly-wing-25b82879ca0444628498ff41262987f7",
      "title": "low poly wing"
    },
    "generator": "Sketchfab-12.66.0",
    "version": "2.0"
  },
  "bufferViews": [
    {
      "buffer": 0,
      "byteLength": 12024,
      "name": "floatBufferViews",
      "target": 34963
    },
    {
      "buffer": 0,
      "byteLength": 24048,
      "byteOffset": 12024,
      "byteStride": 8,
      "name": "floatBufferViews",
      "target": 34962
    },
    {
      "buffer": 0,
      "byteLength": 72144,
      "byteOffset": 36072,
      "byteStride": 12,
      "name": "floatBufferViews",
      "target": 34962
    }
  ],
  "buffers": [
    {
      "byteLength": 108216,
      "uri": "scene.bin"
    }
  ],
  "extensionsRequired": [
    "KHR_materials_pbrSpecularGlossiness"
  ],
  "extensionsUsed": [
    "KHR_materials_pbrSpecularGlossiness"
  ],
  "images": [
    {
      "uri": "textures/Material.004_diffuse.png"
    },
    {
      "uri": "textures/Material.004_emissive.png"
    }
  ],
  "materials": [
    {
      "doubleSided": true,
      "emissiveFactor": [
        1.0,
        1.0,
        1.0
      ],
      "emissiveTexture": {
        "index": 1
      },
      "extensions": {
        "KHR_materials_pbrSpecularGlossiness": {
          "diffuseFactor": [
            1.0,
            1.0,
            1.0,
            1.0
          ],
          "diffuseTexture": {
            "index": 0
          },
          "glossinessFactor": 0.6783190005999999,
          "specularFactor": [
            1.0,
            1.0,
            1.0
          ],
          "specularGlossinessTexture": {
            "index": 0
          }
        }
      },
      "name": "Material.004"
    }
  ],
  "meshes": [
    {
      "name": "Plane.009_0",
      "primitives": [
        {
          "attributes": {
            "NORMAL": 1,
            "POSITION": 0,
            "TEXCOORD_0": 2
          },
          "indices": 3,
          "material": 0,
          "mode": 4
        }
      ]
    }
  ],
  "nodes": [
    {
      "children": [
        1
      ],
      "matrix": [
        0.036092754615179246,
        -7.58003362795743e-17,
        0.3413743662232491,
        0.0,
        0.3413743662232491,
        8.014201439183576e-18,
        -0.036092754615179246,
        0.0,
        0.0,
        0.34327706694602966,
        7.622282070985468e-17,
        0.0,
        0.7693936228752136,
        4.065682443250981e-16,
        -1.8310205936431885,
        1.0
      ],
      "name": "Sketchfab_model"
    },
    {
      "children": [
        2
      ],
      "name": "Root"
    },
    {
      "children": [
        3
      ],
      "name": "Plane.009"
    },
    {
      "mesh": 0,
      "name": "Plane.009_0"
    }
  ],
  "samplers": [
    {
      "magFilter": 9729,
      "minFilter": 9987,
      "wrapS": 10497,
      "wrapT": 10497
    }
  ],
  "scene": 0,
  "scenes": [
    {
      "name": "Sketchfab_Scene",
      "nodes": [
        0
      ]
    }
  ],
  "textures": [
    {
      "sampler": 0,
      "source": 0
    },
    {
      "sampler": 0,
      "source": 1
    }
  ]
}
